<?xml version="1.0" encoding="UTF-8" standalone="no"?>
<!DOCTYPE svg PUBLIC "-//W3C//DTD SVG 1.1//EN"
 "http://www.w3.org/Graphics/SVG/1.1/DTD/svg11.dtd">
<!-- Generated by graphviz version 2.40.1 (20161225.0304)
 -->
<!-- Title: dependencies Pages: 1 -->
<svg width="1209pt" height="211pt"
 viewBox="0.00 0.00 1209.00 211.00" xmlns="http://www.w3.org/2000/svg" xmlns:xlink="http://www.w3.org/1999/xlink">
<g id="graph0" class="graph" transform="scale(1 1) rotate(0) translate(4 207)">
<title>dependencies</title>
<polygon fill="#ffffff" stroke="transparent" points="-4,4 -4,-207 1205,-207 1205,4 -4,4"/>
<text text-anchor="start" x="579.5091" y="-42.4" font-family="sans-serif" font-weight="bold" font-size="14.00" fill="#000000">Legend</text>
<polygon fill="#ffffb3" stroke="transparent" points="366.5,-10 366.5,-30 386.5,-30 386.5,-10 366.5,-10"/>
<text text-anchor="start" x="390.129" y="-15.4" font-family="sans-serif" font-size="14.00" fill="#000000"> &#160;Declarations</text>
<polygon fill="#8dd3c7" stroke="transparent" points="479.5,-10 479.5,-30 499.5,-30 499.5,-10 479.5,-10"/>
<text text-anchor="start" x="503.2251" y="-15.4" font-family="sans-serif" font-size="14.00" fill="#000000"> &#160;Module</text>
<polygon fill="#80b1d3" stroke="transparent" points="565.5,-10 565.5,-30 585.5,-30 585.5,-10 565.5,-10"/>
<text text-anchor="start" x="589.2812" y="-15.4" font-family="sans-serif" font-size="14.00" fill="#000000"> &#160;Bootstrap</text>
<polygon fill="#fdb462" stroke="transparent" points="662.5,-10 662.5,-30 682.5,-30 682.5,-10 662.5,-10"/>
<text text-anchor="start" x="686.1732" y="-15.4" font-family="sans-serif" font-size="14.00" fill="#000000"> &#160;Providers</text>
<polygon fill="#fb8072" stroke="transparent" points="758.5,-10 758.5,-30 778.5,-30 778.5,-10 758.5,-10"/>
<text text-anchor="start" x="782.2258" y="-15.4" font-family="sans-serif" font-size="14.00" fill="#000000"> &#160;Exports</text>
<g id="clust1" class="cluster">
<title>cluster_DefaultModule</title>
<polygon fill="none" stroke="#000000" stroke-dasharray="1,5" points="8,-70 8,-195 1193,-195 1193,-70 8,-70"/>
</g>
<g id="clust2" class="cluster">
<title>cluster_DefaultModule_declarations</title>
<polygon fill="none" stroke="#000000" points="410,-78 410,-130 1185,-130 1185,-78 410,-78"/>
</g>
<g id="clust8" class="cluster">
<title>cluster_DefaultModule_imports</title>
<polygon fill="none" stroke="#000000" points="16,-78 16,-130 402,-130 402,-78 16,-78"/>
</g>
<!-- AddpactionComponent -->
<g id="node1" class="node">
<title>AddpactionComponent</title>
<polygon fill="#ffffb3" stroke="#000000" points="1177.1498,-122 1030.8502,-122 1030.8502,-86 1177.1498,-86 1177.1498,-122"/>
<text text-anchor="middle" x="1104" y="-99.8" font-family="Times,serif" font-size="14.00" fill="#000000">AddpactionComponent</text>
</g>
<!-- DefaultModule -->
<g id="node6" class="node">
<title>DefaultModule</title>
<polygon fill="#8dd3c7" stroke="#000000" points="603.5285,-187 600.5285,-191 579.5285,-191 576.5285,-187 502.4715,-187 502.4715,-151 603.5285,-151 603.5285,-187"/>
<text text-anchor="middle" x="553" y="-164.8" font-family="Times,serif" font-size="14.00" fill="#000000">DefaultModule</text>
</g>
<!-- AddpactionComponent&#45;&gt;DefaultModule -->
<g id="edge1" class="edge">
<title>AddpactionComponent&#45;&gt;DefaultModule</title>
<path fill="none" stroke="#000000" d="M1104,-122.2921C1104,-144.2057 1104,-178 1104,-178 1104,-178 613.8491,-178 613.8491,-178"/>
<polygon fill="#000000" stroke="#000000" points="613.8492,-174.5001 603.8491,-178 613.8491,-181.5001 613.8492,-174.5001"/>
</g>
<!-- DashboardComponent -->
<g id="node2" class="node">
<title>DashboardComponent</title>
<polygon fill="#ffffb3" stroke="#000000" points="1012.9734,-122 871.0266,-122 871.0266,-86 1012.9734,-86 1012.9734,-122"/>
<text text-anchor="middle" x="942" y="-99.8" font-family="Times,serif" font-size="14.00" fill="#000000">DashboardComponent</text>
</g>
<!-- DashboardComponent&#45;&gt;DefaultModule -->
<g id="edge2" class="edge">
<title>DashboardComponent&#45;&gt;DefaultModule</title>
<path fill="none" stroke="#000000" d="M942,-122.1061C942,-141.3391 942,-169 942,-169 942,-169 613.855,-169 613.855,-169"/>
<polygon fill="#000000" stroke="#000000" points="613.855,-165.5001 603.855,-169 613.8549,-172.5001 613.855,-165.5001"/>
</g>
<!-- DefaultComponent -->
<g id="node3" class="node">
<title>DefaultComponent</title>
<polygon fill="#ffffb3" stroke="#000000" points="852.8104,-122 729.1896,-122 729.1896,-86 852.8104,-86 852.8104,-122"/>
<text text-anchor="middle" x="791" y="-99.8" font-family="Times,serif" font-size="14.00" fill="#000000">DefaultComponent</text>
</g>
<!-- DefaultComponent&#45;&gt;DefaultModule -->
<g id="edge3" class="edge">
<title>DefaultComponent&#45;&gt;DefaultModule</title>
<path fill="none" stroke="#000000" d="M791,-122.027C791,-138.3976 791,-160 791,-160 791,-160 613.765,-160 613.765,-160"/>
<polygon fill="#000000" stroke="#000000" points="613.7651,-156.5001 603.765,-160 613.765,-163.5001 613.7651,-156.5001"/>
</g>
<!-- EnrechirPlandComponent -->
<g id="node4" class="node">
<title>EnrechirPlandComponent</title>
<polygon fill="#ffffb3" stroke="#000000" points="711.9143,-122 550.0857,-122 550.0857,-86 711.9143,-86 711.9143,-122"/>
<text text-anchor="middle" x="631" y="-99.8" font-family="Times,serif" font-size="14.00" fill="#000000">EnrechirPlandComponent</text>
</g>
<!-- EnrechirPlandComponent&#45;&gt;DefaultModule -->
<g id="edge4" class="edge">
<title>EnrechirPlandComponent&#45;&gt;DefaultModule</title>
<path fill="none" stroke="#000000" d="M577.0284,-122.1061C577.0284,-122.1061 577.0284,-140.991 577.0284,-140.991"/>
<polygon fill="#000000" stroke="#000000" points="573.5285,-140.9909 577.0284,-150.991 580.5285,-140.991 573.5285,-140.9909"/>
</g>
<!-- LoginComponent -->
<g id="node5" class="node">
<title>LoginComponent</title>
<polygon fill="#ffffb3" stroke="#000000" points="532.2758,-122 417.7242,-122 417.7242,-86 532.2758,-86 532.2758,-122"/>
<text text-anchor="middle" x="475" y="-99.8" font-family="Times,serif" font-size="14.00" fill="#000000">LoginComponent</text>
</g>
<!-- LoginComponent&#45;&gt;DefaultModule -->
<g id="edge5" class="edge">
<title>LoginComponent&#45;&gt;DefaultModule</title>
<path fill="none" stroke="#000000" d="M517.3121,-122.1061C517.3121,-122.1061 517.3121,-140.991 517.3121,-140.991"/>
<polygon fill="#000000" stroke="#000000" points="513.8121,-140.9909 517.3121,-150.991 520.8121,-140.991 513.8121,-140.9909"/>
</g>
<!-- AppRoutingModule -->
<g id="node7" class="node">
<title>AppRoutingModule</title>
<polygon fill="#8dd3c7" stroke="#000000" points="394.2744,-122 391.2744,-126 370.2744,-126 367.2744,-122 265.7256,-122 265.7256,-86 394.2744,-86 394.2744,-122"/>
<text text-anchor="middle" x="330" y="-99.8" font-family="Times,serif" font-size="14.00" fill="#000000">AppRoutingModule</text>
</g>
<!-- AppRoutingModule&#45;&gt;DefaultModule -->
<g id="edge6" class="edge">
<title>AppRoutingModule&#45;&gt;DefaultModule</title>
<path fill="none" stroke="#000000" d="M330,-122.027C330,-138.3976 330,-160 330,-160 330,-160 492.3978,-160 492.3978,-160"/>
<polygon fill="#000000" stroke="#000000" points="492.3979,-163.5001 502.3978,-160 492.3978,-156.5001 492.3979,-163.5001"/>
</g>
<!-- MaterialModule -->
<g id="node8" class="node">
<title>MaterialModule</title>
<polygon fill="#8dd3c7" stroke="#000000" points="247.4706,-122 244.4706,-126 223.4706,-126 220.4706,-122 140.5294,-122 140.5294,-86 247.4706,-86 247.4706,-122"/>
<text text-anchor="middle" x="194" y="-99.8" font-family="Times,serif" font-size="14.00" fill="#000000">MaterialModule</text>
</g>
<!-- MaterialModule&#45;&gt;DefaultModule -->
<g id="edge7" class="edge">
<title>MaterialModule&#45;&gt;DefaultModule</title>
<path fill="none" stroke="#000000" d="M194,-122.1061C194,-141.3391 194,-169 194,-169 194,-169 492.3255,-169 492.3255,-169"/>
<polygon fill="#000000" stroke="#000000" points="492.3255,-172.5001 502.3255,-169 492.3255,-165.5001 492.3255,-172.5001"/>
</g>
<!-- SharedModule -->
<g id="node9" class="node">
<title>SharedModule</title>
<polygon fill="#8dd3c7" stroke="#000000" points="122.4231,-122 119.4231,-126 98.4231,-126 95.4231,-122 23.5769,-122 23.5769,-86 122.4231,-86 122.4231,-122"/>
<text text-anchor="middle" x="73" y="-99.8" font-family="Times,serif" font-size="14.00" fill="#000000">SharedModule</text>
</g>
<!-- SharedModule&#45;&gt;DefaultModule -->
<g id="edge8" class="edge">
<title>SharedModule&#45;&gt;DefaultModule</title>
<path fill="none" stroke="#000000" d="M73,-122.2921C73,-144.2057 73,-178 73,-178 73,-178 492.086,-178 492.086,-178"/>
<polygon fill="#000000" stroke="#000000" points="492.0861,-181.5001 502.086,-178 492.086,-174.5001 492.0861,-181.5001"/>
</g>
</g>
</svg>
