<?xml version="1.0" encoding="UTF-8" standalone="no"?>
<!DOCTYPE svg PUBLIC "-//W3C//DTD SVG 1.1//EN"
 "http://www.w3.org/Graphics/SVG/1.1/DTD/svg11.dtd">
<!-- Generated by graphviz version 2.40.1 (20161225.0304)
 -->
<!-- Title: dependencies Pages: 1 -->
<svg width="1449pt" height="360pt"
 viewBox="0.00 0.00 1449.00 360.00" xmlns="http://www.w3.org/2000/svg" xmlns:xlink="http://www.w3.org/1999/xlink">
<g id="graph0" class="graph" transform="scale(1 1) rotate(0) translate(4 356)">
<title>dependencies</title>
<polygon fill="#ffffff" stroke="transparent" points="-4,4 -4,-356 1445,-356 1445,4 -4,4"/>
<text text-anchor="start" x="699.5091" y="-42.4" font-family="sans-serif" font-weight="bold" font-size="14.00" fill="#000000">Legend</text>
<polygon fill="#ffffb3" stroke="transparent" points="486.5,-10 486.5,-30 506.5,-30 506.5,-10 486.5,-10"/>
<text text-anchor="start" x="510.129" y="-15.4" font-family="sans-serif" font-size="14.00" fill="#000000"> &#160;Declarations</text>
<polygon fill="#8dd3c7" stroke="transparent" points="599.5,-10 599.5,-30 619.5,-30 619.5,-10 599.5,-10"/>
<text text-anchor="start" x="623.2251" y="-15.4" font-family="sans-serif" font-size="14.00" fill="#000000"> &#160;Module</text>
<polygon fill="#80b1d3" stroke="transparent" points="685.5,-10 685.5,-30 705.5,-30 705.5,-10 685.5,-10"/>
<text text-anchor="start" x="709.2812" y="-15.4" font-family="sans-serif" font-size="14.00" fill="#000000"> &#160;Bootstrap</text>
<polygon fill="#fdb462" stroke="transparent" points="782.5,-10 782.5,-30 802.5,-30 802.5,-10 782.5,-10"/>
<text text-anchor="start" x="806.1732" y="-15.4" font-family="sans-serif" font-size="14.00" fill="#000000"> &#160;Providers</text>
<polygon fill="#fb8072" stroke="transparent" points="878.5,-10 878.5,-30 898.5,-30 898.5,-10 878.5,-10"/>
<text text-anchor="start" x="902.2258" y="-15.4" font-family="sans-serif" font-size="14.00" fill="#000000"> &#160;Exports</text>
<g id="clust1" class="cluster">
<title>cluster_AppModule</title>
<polygon fill="none" stroke="#000000" stroke-dasharray="1,5" points="8,-70 8,-344 423,-344 423,-70 8,-70"/>
</g>
<g id="clust2" class="cluster">
<title>cluster_AppModule_declarations</title>
<polygon fill="none" stroke="#000000" points="293,-154 293,-206 415,-206 415,-154 293,-154"/>
</g>
<g id="clust4" class="cluster">
<title>cluster_AppModule_imports</title>
<polygon fill="none" stroke="#000000" points="16,-78 16,-206 285,-206 285,-78 16,-78"/>
</g>
<g id="clust6" class="cluster">
<title>cluster_AppModule_bootstrap</title>
<polygon fill="none" stroke="#000000" points="129,-284 129,-336 253,-336 253,-284 129,-284"/>
</g>
<g id="clust14" class="cluster">
<title>cluster_DefaultModule</title>
<polygon fill="none" stroke="#000000" stroke-dasharray="1,5" points="431,-70 431,-138 1345,-138 1345,-70 431,-70"/>
</g>
<g id="clust15" class="cluster">
<title>cluster_DefaultModule_declarations</title>
<polygon fill="none" stroke="#000000" points="439,-78 439,-130 1215,-130 1215,-78 439,-78"/>
</g>
<g id="clust21" class="cluster">
<title>cluster_DefaultModule_imports</title>
<polygon fill="none" stroke="#000000" points="1223,-78 1223,-130 1337,-130 1337,-78 1223,-78"/>
</g>
<g id="clust31" class="cluster">
<title>cluster_SharedModule</title>
<polygon fill="none" stroke="#000000" stroke-dasharray="1,5" points="1125,-146 1125,-214 1433,-214 1433,-146 1125,-146"/>
</g>
<g id="clust32" class="cluster">
<title>cluster_SharedModule_declarations</title>
<polygon fill="none" stroke="#000000" points="1285,-154 1285,-206 1425,-206 1425,-154 1285,-154"/>
</g>
<g id="clust35" class="cluster">
<title>cluster_SharedModule_exports</title>
<polygon fill="none" stroke="#000000" points="1133,-154 1133,-206 1277,-206 1277,-154 1133,-154"/>
</g>
<!-- AppComponent -->
<g id="node1" class="node">
<title>AppComponent</title>
<polygon fill="#ffffb3" stroke="#000000" points="406.9399,-198 301.0601,-198 301.0601,-162 406.9399,-162 406.9399,-198"/>
<text text-anchor="middle" x="354" y="-175.8" font-family="Times,serif" font-size="14.00" fill="#000000">AppComponent</text>
</g>
<!-- AppModule -->
<g id="node2" class="node">
<title>AppModule</title>
<polygon fill="#8dd3c7" stroke="#000000" points="232.6571,-263 229.6571,-267 208.6571,-267 205.6571,-263 149.3429,-263 149.3429,-227 232.6571,-227 232.6571,-263"/>
<text text-anchor="middle" x="191" y="-240.8" font-family="Times,serif" font-size="14.00" fill="#000000">AppModule</text>
</g>
<!-- AppComponent&#45;&gt;AppModule -->
<g id="edge1" class="edge">
<title>AppComponent&#45;&gt;AppModule</title>
<path fill="none" stroke="#000000" d="M354,-198.1061C354,-217.3391 354,-245 354,-245 354,-245 242.9766,-245 242.9766,-245"/>
<polygon fill="#000000" stroke="#000000" points="242.9766,-241.5001 232.9766,-245 242.9765,-248.5001 242.9766,-241.5001"/>
</g>
<!-- AppComponent  -->
<g id="node6" class="node">
<title>AppComponent </title>
<polygon fill="#80b1d3" stroke="#000000" points="245.439,-328 136.561,-328 136.561,-292 245.439,-292 245.439,-328"/>
<text text-anchor="middle" x="191" y="-305.8" font-family="Times,serif" font-size="14.00" fill="#000000">AppComponent </text>
</g>
<!-- AppModule&#45;&gt;AppComponent  -->
<g id="edge5" class="edge">
<title>AppModule&#45;&gt;AppComponent </title>
<path fill="none" stroke="#000000" stroke-dasharray="1,5" d="M191,-263.1061C191,-263.1061 191,-281.991 191,-281.991"/>
<polygon fill="#000000" stroke="#000000" points="187.5001,-281.9909 191,-291.991 194.5001,-281.991 187.5001,-281.9909"/>
</g>
<!-- AppRoutingModule -->
<g id="node3" class="node">
<title>AppRoutingModule</title>
<polygon fill="#8dd3c7" stroke="#000000" points="277.2744,-122 274.2744,-126 253.2744,-126 250.2744,-122 148.7256,-122 148.7256,-86 277.2744,-86 277.2744,-122"/>
<text text-anchor="middle" x="213" y="-99.8" font-family="Times,serif" font-size="14.00" fill="#000000">AppRoutingModule</text>
</g>
<!-- AppRoutingModule&#45;&gt;AppModule -->
<g id="edge2" class="edge">
<title>AppRoutingModule&#45;&gt;AppModule</title>
<path fill="none" stroke="#000000" d="M162.2041,-122.1446C162.2041,-122.1446 162.2041,-216.925 162.2041,-216.925"/>
<polygon fill="#000000" stroke="#000000" points="158.7041,-216.925 162.2041,-226.925 165.7041,-216.925 158.7041,-216.925"/>
</g>
<!-- DefaultModule -->
<g id="node4" class="node">
<title>DefaultModule</title>
<polygon fill="#8dd3c7" stroke="#000000" points="276.5285,-198 273.5285,-202 252.5285,-202 249.5285,-198 175.4715,-198 175.4715,-162 276.5285,-162 276.5285,-198"/>
<text text-anchor="middle" x="226" y="-175.8" font-family="Times,serif" font-size="14.00" fill="#000000">DefaultModule</text>
</g>
<!-- AppRoutingModule&#45;&gt;DefaultModule -->
<g id="edge11" class="edge">
<title>AppRoutingModule&#45;&gt;DefaultModule</title>
<path fill="none" stroke="#000000" d="M189.7402,-122.0109C189.7402,-122.0109 189.7402,-151.855 189.7402,-151.855"/>
<polygon fill="#000000" stroke="#000000" points="186.2403,-151.8549 189.7402,-161.855 193.2403,-151.855 186.2403,-151.8549"/>
</g>
<!-- DefaultModule&#45;&gt;AppModule -->
<g id="edge3" class="edge">
<title>DefaultModule&#45;&gt;AppModule</title>
<path fill="none" stroke="#000000" d="M204.0323,-198.1061C204.0323,-198.1061 204.0323,-216.991 204.0323,-216.991"/>
<polygon fill="#000000" stroke="#000000" points="200.5323,-216.9909 204.0323,-226.991 207.5323,-216.991 200.5323,-216.9909"/>
</g>
<!-- MaterialModule -->
<g id="node5" class="node">
<title>MaterialModule</title>
<polygon fill="#8dd3c7" stroke="#000000" points="130.4706,-122 127.4706,-126 106.4706,-126 103.4706,-122 23.5294,-122 23.5294,-86 130.4706,-86 130.4706,-122"/>
<text text-anchor="middle" x="77" y="-99.8" font-family="Times,serif" font-size="14.00" fill="#000000">MaterialModule</text>
</g>
<!-- MaterialModule&#45;&gt;AppModule -->
<g id="edge4" class="edge">
<title>MaterialModule&#45;&gt;AppModule</title>
<path fill="none" stroke="#000000" d="M59.1716,-122.1446C59.1716,-160.2265 59.1716,-245 59.1716,-245 59.1716,-245 139.2887,-245 139.2887,-245"/>
<polygon fill="#000000" stroke="#000000" points="139.2887,-248.5001 149.2887,-245 139.2886,-241.5001 139.2887,-248.5001"/>
</g>
<!-- MaterialModule&#45;&gt;DefaultModule -->
<g id="edge12" class="edge">
<title>MaterialModule&#45;&gt;DefaultModule</title>
<path fill="none" stroke="#000000" d="M94.8284,-122.0109C94.8284,-144.4852 94.8284,-180 94.8284,-180 94.8284,-180 165.2856,-180 165.2856,-180"/>
<polygon fill="#000000" stroke="#000000" points="165.2857,-183.5001 175.2856,-180 165.2856,-176.5001 165.2857,-183.5001"/>
</g>
<!-- AddpactionComponent -->
<g id="node7" class="node">
<title>AddpactionComponent</title>
<polygon fill="#ffffb3" stroke="#000000" points="1074.1498,-122 927.8502,-122 927.8502,-86 1074.1498,-86 1074.1498,-122"/>
<text text-anchor="middle" x="1001" y="-99.8" font-family="Times,serif" font-size="14.00" fill="#000000">AddpactionComponent</text>
</g>
<!-- AddpactionComponent&#45;&gt;DefaultModule -->
<g id="edge6" class="edge">
<title>AddpactionComponent&#45;&gt;DefaultModule</title>
<path fill="none" stroke="#000000" d="M1001,-122.1097C1001,-131.897 1001,-142 1001,-142 1001,-142 233.252,-142 233.252,-142 233.252,-142 233.252,-151.8903 233.252,-151.8903"/>
<polygon fill="#000000" stroke="#000000" points="229.7521,-151.8903 233.252,-161.8903 236.7521,-151.8904 229.7521,-151.8903"/>
</g>
<!-- DashboardComponent -->
<g id="node8" class="node">
<title>DashboardComponent</title>
<polygon fill="#ffffb3" stroke="#000000" points="909.9734,-122 768.0266,-122 768.0266,-86 909.9734,-86 909.9734,-122"/>
<text text-anchor="middle" x="839" y="-99.8" font-family="Times,serif" font-size="14.00" fill="#000000">DashboardComponent</text>
</g>
<!-- DashboardComponent&#45;&gt;DefaultModule -->
<g id="edge7" class="edge">
<title>DashboardComponent&#45;&gt;DefaultModule</title>
<path fill="none" stroke="#000000" d="M839,-122.2434C839,-129.4297 839,-136 839,-136 839,-136 218.748,-136 218.748,-136 218.748,-136 218.748,-151.8495 218.748,-151.8495"/>
<polygon fill="#000000" stroke="#000000" points="215.2481,-151.8494 218.748,-161.8495 222.2481,-151.8495 215.2481,-151.8494"/>
</g>
<!-- DefaultComponent -->
<g id="node9" class="node">
<title>DefaultComponent</title>
<polygon fill="#ffffb3" stroke="#000000" points="749.8104,-122 626.1896,-122 626.1896,-86 749.8104,-86 749.8104,-122"/>
<text text-anchor="middle" x="688" y="-99.8" font-family="Times,serif" font-size="14.00" fill="#000000">DefaultComponent</text>
</g>
<!-- DefaultComponent&#45;&gt;DefaultModule -->
<g id="edge8" class="edge">
<title>DefaultComponent&#45;&gt;DefaultModule</title>
<path fill="none" stroke="#000000" d="M688,-122.1686C688,-126.0459 688,-129 688,-129 688,-129 204.2441,-129 204.2441,-129 204.2441,-129 204.2441,-151.8757 204.2441,-151.8757"/>
<polygon fill="#000000" stroke="#000000" points="200.7442,-151.8757 204.2441,-161.8757 207.7442,-151.8757 200.7442,-151.8757"/>
</g>
<!-- EnrechirPlandComponent -->
<g id="node10" class="node">
<title>EnrechirPlandComponent</title>
<polygon fill="#ffffb3" stroke="#000000" points="608.9143,-122 447.0857,-122 447.0857,-86 608.9143,-86 608.9143,-122"/>
<text text-anchor="middle" x="528" y="-99.8" font-family="Times,serif" font-size="14.00" fill="#000000">EnrechirPlandComponent</text>
</g>
<!-- EnrechirPlandComponent&#45;&gt;DefaultModule -->
<g id="edge9" class="edge">
<title>EnrechirPlandComponent&#45;&gt;DefaultModule</title>
<path fill="none" stroke="#000000" d="M447.1985,-104C377.9596,-104 289.3338,-104 289.3338,-104 289.3338,-104 289.3338,-180 289.3338,-180 289.3338,-180 286.8211,-180 286.8211,-180"/>
<polygon fill="#000000" stroke="#000000" points="286.8211,-176.5001 276.8211,-180 286.821,-183.5001 286.8211,-176.5001"/>
</g>
<!-- LoginComponent -->
<g id="node11" class="node">
<title>LoginComponent</title>
<polygon fill="#ffffb3" stroke="#000000" points="1207.2758,-122 1092.7242,-122 1092.7242,-86 1207.2758,-86 1207.2758,-122"/>
<text text-anchor="middle" x="1150" y="-99.8" font-family="Times,serif" font-size="14.00" fill="#000000">LoginComponent</text>
</g>
<!-- LoginComponent&#45;&gt;DefaultModule -->
<g id="edge10" class="edge">
<title>LoginComponent&#45;&gt;DefaultModule</title>
<path fill="none" stroke="#000000" d="M1116.9073,-122.0439C1116.9073,-134.5633 1116.9073,-149 1116.9073,-149 1116.9073,-149 247.7559,-149 247.7559,-149 247.7559,-149 247.7559,-151.9672 247.7559,-151.9672"/>
<polygon fill="#000000" stroke="#000000" points="244.256,-151.9671 247.7559,-161.9672 251.256,-151.9672 244.256,-151.9671"/>
</g>
<!-- SharedModule -->
<g id="node12" class="node">
<title>SharedModule</title>
<polygon fill="#8dd3c7" stroke="#000000" points="1329.4231,-122 1326.4231,-126 1305.4231,-126 1302.4231,-122 1230.5769,-122 1230.5769,-86 1329.4231,-86 1329.4231,-122"/>
<text text-anchor="middle" x="1280" y="-99.8" font-family="Times,serif" font-size="14.00" fill="#000000">SharedModule</text>
</g>
<!-- SharedModule&#45;&gt;DefaultModule -->
<g id="edge13" class="edge">
<title>SharedModule&#45;&gt;DefaultModule</title>
<path fill="none" stroke="#000000" d="M1243.4585,-122.1871C1243.4585,-137.1824 1243.4585,-156 1243.4585,-156 1243.4585,-156 262.2598,-156 262.2598,-156 262.2598,-156 262.2598,-156.581 262.2598,-156.581"/>
<polygon fill="#000000" stroke="#000000" points="258.76,-151.8097 262.2598,-161.8097 265.76,-151.8098 258.76,-151.8097"/>
</g>
<!-- SidebarComponent  -->
<g id="node14" class="node">
<title>SidebarComponent </title>
<polygon fill="#fb8072" stroke="#000000" points="1268.596,-198 1141.404,-198 1141.404,-162 1268.596,-162 1268.596,-198"/>
<text text-anchor="middle" x="1205" y="-175.8" font-family="Times,serif" font-size="14.00" fill="#000000">SidebarComponent </text>
</g>
<!-- SharedModule&#45;&gt;SidebarComponent  -->
<g id="edge15" class="edge">
<title>SharedModule&#45;&gt;SidebarComponent </title>
<path fill="none" stroke="#000000" stroke-dasharray="5,2" d="M1256.1281,-122.0109C1256.1281,-122.0109 1256.1281,-151.855 1256.1281,-151.855"/>
<polygon fill="#000000" stroke="#000000" points="1252.6282,-151.8549 1256.1281,-161.855 1259.6282,-151.855 1252.6282,-151.8549"/>
</g>
<!-- SidebarComponent -->
<g id="node13" class="node">
<title>SidebarComponent</title>
<polygon fill="#ffffb3" stroke="#000000" points="1417.0954,-198 1292.9046,-198 1292.9046,-162 1417.0954,-162 1417.0954,-198"/>
<text text-anchor="middle" x="1355" y="-175.8" font-family="Times,serif" font-size="14.00" fill="#000000">SidebarComponent</text>
</g>
<!-- SidebarComponent&#45;&gt;SharedModule -->
<g id="edge14" class="edge">
<title>SidebarComponent&#45;&gt;SharedModule</title>
<path fill="none" stroke="#000000" d="M1311.0817,-161.9891C1311.0817,-161.9891 1311.0817,-132.145 1311.0817,-132.145"/>
<polygon fill="#000000" stroke="#000000" points="1314.5818,-132.145 1311.0817,-122.145 1307.5818,-132.1451 1314.5818,-132.145"/>
</g>
</g>
</svg>
